<svg width="1152" height="1402" viewBox="0 0 1152 1402" fill="none" xmlns="http://www.w3.org/2000/svg">
<path d="M974 562H100C72.3858 562 50 539.614 50 512V415" stroke="#CBCAFF" stroke-width="2" stroke-linecap="round" stroke-linejoin="round" stroke-dasharray="25 25"/>
<path d="M1199.18 527.03C1224.35 523.113 1244.33 547.919 1235.13 571.68L1168.92 742.763C1159.72 766.525 1128.25 771.421 1112.27 751.576L997.217 608.694C981.237 588.85 992.732 559.148 1017.91 555.231L1199.18 527.03Z" stroke="#6F15EA" stroke-opacity="0.1" stroke-width="41.2783"/>
<path d="M-50.4649 1348.99C-69.3686 1359.75 -91.5677 1346.34 -90.4233 1324.85L-82.1835 1170.16C-81.0391 1148.67 -57.4095 1135.23 -39.6502 1145.96L88.2167 1223.21C105.976 1233.94 104.545 1260.8 85.6418 1271.55L-50.4649 1348.99Z" stroke="#6F15EA" stroke-opacity="0.1" stroke-width="35.5364"/>
<path d="M133.259 352.151C144.847 367.282 134.761 388.596 115.104 390.516L-26.4287 404.344C-46.086 406.264 -60.5714 387.351 -52.5024 370.3L5.59438 247.533C13.6634 230.482 38.235 228.082 49.8233 243.212L133.259 352.151Z" stroke="#6F15EA" stroke-opacity="0.1" stroke-width="32.0164"/>
<rect x="1080" width="39" height="13" fill="white"/>
</svg>
