<svg width="1152" height="661" viewBox="0 0 1152 661" fill="none" xmlns="http://www.w3.org/2000/svg">
<g filter="url(#filter0_d)">
<path fill-rule="evenodd" clip-rule="evenodd" d="M1167 650.5C1109.5 611.5 1094.5 581 1080 556C1064.47 529.225 1042.5 467.5 931 516.5C895.561 532.074 853 563 752.5 516.5C654.945 471.363 693 231.5 659 180C639.393 150.301 614.5 137.838 597 135C576.5 131.676 531 135 505 180C477.326 227.897 406.79 236.291 371.5 211C341.5 189.5 334.191 171.625 307.5 151C274.5 125.5 246 124 200.5 180C168.395 219.513 73.5 204 37.5 180C1.5 156 3 126 -15 96L-33 108V6.10352e-05H-15C3 6.10352e-05 40 6.10352e-05 76 6.10352e-05C112 6.10352e-05 149 6.10352e-05 185 6.10352e-05C222 6.10352e-05 258 6.10352e-05 294 6.10352e-05C331 6.10352e-05 367 6.10352e-05 403 6.10352e-05C440 6.10352e-05 476 6.10352e-05 512 6.10352e-05C549 6.10352e-05 585 6.10352e-05 622 6.10352e-05C658 6.10352e-05 694 6.10352e-05 731 6.10352e-05C767 6.10352e-05 803 6.10352e-05 840 6.10352e-05C876 6.10352e-05 912 6.10352e-05 949 6.10352e-05C985 6.10352e-05 1022 6.10352e-05 1058 6.10352e-05C1094 6.10352e-05 1131 6.10352e-05 1149 6.10352e-05H1167V650.5Z" fill="url(#paint0_linear)" shape-rendering="crispEdges"/>
<path fill-rule="evenodd" clip-rule="evenodd" d="M1167 650.5C1109.5 611.5 1094.5 581 1080 556C1064.47 529.225 1042.5 467.5 931 516.5C895.561 532.074 853 563 752.5 516.5C654.945 471.363 693 231.5 659 180C639.393 150.301 614.5 137.838 597 135C576.5 131.676 531 135 505 180C477.326 227.897 406.79 236.291 371.5 211C341.5 189.5 334.191 171.625 307.5 151C274.5 125.5 246 124 200.5 180C168.395 219.513 73.5 204 37.5 180C1.5 156 3 126 -15 96L-33 108V6.10352e-05H-15C3 6.10352e-05 40 6.10352e-05 76 6.10352e-05C112 6.10352e-05 149 6.10352e-05 185 6.10352e-05C222 6.10352e-05 258 6.10352e-05 294 6.10352e-05C331 6.10352e-05 367 6.10352e-05 403 6.10352e-05C440 6.10352e-05 476 6.10352e-05 512 6.10352e-05C549 6.10352e-05 585 6.10352e-05 622 6.10352e-05C658 6.10352e-05 694 6.10352e-05 731 6.10352e-05C767 6.10352e-05 803 6.10352e-05 840 6.10352e-05C876 6.10352e-05 912 6.10352e-05 949 6.10352e-05C985 6.10352e-05 1022 6.10352e-05 1058 6.10352e-05C1094 6.10352e-05 1131 6.10352e-05 1149 6.10352e-05H1167V650.5Z" stroke="#5393C0" shape-rendering="crispEdges"/>
</g>
<defs>
<filter id="filter0_d" x="-33" y="0" width="1205" height="660.5" filterUnits="userSpaceOnUse" color-interpolation-filters="sRGB">
<feFlood flood-opacity="0" result="BackgroundImageFix"/>
<feColorMatrix in="SourceAlpha" type="matrix" values="0 0 0 0 0 0 0 0 0 0 0 0 0 0 0 0 0 0 127 0" result="hardAlpha"/>
<feOffset dx="5" dy="10"/>
<feComposite in2="hardAlpha" operator="out"/>
<feColorMatrix type="matrix" values="0 0 0 0 0.568627 0 0 0 0 0.427451 0 0 0 0 0.768627 0 0 0 0.61 0"/>
<feBlend mode="normal" in2="BackgroundImageFix" result="effect1_dropShadow"/>
<feBlend mode="normal" in="SourceGraphic" in2="effect1_dropShadow" result="shape"/>
</filter>
<linearGradient id="paint0_linear" x1="348" y1="637.5" x2="931" y2="-143.5" gradientUnits="userSpaceOnUse">
<stop offset="0.090862" stop-color="#5393C0" stop-opacity="0.45"/>
<stop offset="0.389091" stop-color="#5393C0"/>
<stop offset="0.804892" stop-color="#A561C5"/>
<stop offset="0.949355" stop-color="#A561C5"/>
</linearGradient>
</defs>
</svg>
