<svg width="205" height="63" viewBox="0 0 205 63" fill="none" xmlns="http://www.w3.org/2000/svg">
<path d="M32.8869 57.0468C32.2516 58.9542 30.2906 57.6191 28.8398 57.0468C28.8398 58.521 28.3714 61.7776 29.7577 62.4708C31.3847 63.2843 32.3907 63.0013 33.1278 62.6676C40.3041 59.5662 55.1668 52.8579 58.1709 51.6229C61.1749 50.3879 61.7034 47.7705 61.5921 46.6161V9.56633C60.6242 5.66108 56.9331 5.2967 55.2086 5.60267L32.8869 15.4492V57.0468Z" fill="#A561C5"/>
<path d="M32.8869 12.8624V15.5327C29.2486 16.5674 28.6729 17.9387 28.8398 18.495V57.0051C21.8582 54.015 7.07717 47.6509 3.80611 46.1155C0.535047 44.5801 -0.0880123 42.0823 0.00934081 41.0253V4.01721C1.31109 -0.555599 5.8088 -0.308044 7.89494 0.387335C14.8765 3.55826 29.2653 10.0336 30.9676 10.5677C32.6699 11.1017 32.9564 12.32 32.8869 12.8624Z" fill="#A561C5"/>
<path d="M192.037 42.1608C195.731 42.5614 201.091 41.5766 201.508 41.2429C201.925 40.9091 202.833 40.096 202.843 39.115C202.856 37.7436 201.258 36.9037 200.298 36.6951C199.338 36.4865 195.427 37.1851 192.371 36.6951C191.433 36.5449 190.847 36.6071 189.992 36.1944C188.737 35.588 187.531 33.6076 187.531 33.6076H202.05C202.05 33.6076 203.97 32.9818 204.303 31.8552C204.637 30.7287 204.653 29.2745 204.303 27.683C203.855 25.6393 203.185 24.4991 201.758 22.9683C200.028 21.1111 198.532 20.4688 196.084 19.7974C193.381 19.0561 190.618 19.5888 188.908 19.7974C187.197 20.006 185.455 20.7723 183.776 22.2173C181.873 23.8538 181.095 25.2728 180.396 27.683C179.67 30.1868 180.062 32.3142 180.396 34.3586C180.73 36.403 182.395 38.5075 184.694 40.1163C187.132 41.8233 189.077 41.8398 192.037 42.1608Z" fill="#A561C5"/>
<path d="M197.092 28.6371H187.413C187.413 28.6371 187.83 24.9238 192.294 24.9238C196.758 24.9238 197.092 28.6371 197.092 28.6371Z" fill="white"/>
<path d="M143.103 41.3625V19.8336H148.819C149.57 19.8336 149.987 21.9614 150.571 21.9614C151.155 21.9614 152.574 19.166 157.122 19.166C161.67 19.166 162.963 21.9614 163.38 21.9614C163.797 21.9614 166.76 19.166 170.64 19.166C174.52 19.166 175.146 20.0722 176.022 20.8766C177.559 22.2874 178.192 24.7151 178.192 25.7582V41.3625L170.64 41.1122V27.0516C170.64 26.3423 169.04 25.2808 167.678 25.341C166.413 25.3968 164.841 26.3423 164.841 27.0516V41.3625H157.122V27.5106C157.122 26.3006 155.745 25.341 153.826 25.341C151.906 25.341 150.571 26.9682 150.571 27.7609V41.3625H143.103Z" fill="#A561C5"/>
<path d="M94.1205 20.0005H87.4448C87.4448 20.0005 96.5404 38.9009 96.6656 40.1943C96.7907 41.4877 94.788 43.9076 94.3291 44.1162C93.8701 44.3249 92.2833 43.8568 91.4085 44.1162C90.3055 44.4433 89.823 45.2845 89.6561 45.9103C89.4892 46.5362 89.1555 49.1647 89.6561 49.4985C90.1568 49.8323 94.9966 50.8289 97.959 49.9759C100.921 49.123 102.799 46.9951 103.633 45.66C104.468 44.3249 114.565 20.9369 113.772 20.4779C112.979 20.019 107.806 20.019 106.804 20.4779C105.803 20.9369 101.756 33.6021 100.754 33.31C99.753 33.018 96.5821 20.0005 94.1205 20.0005Z" fill="#A561C5"/>
<path d="M115.89 35.725C115.89 33.0131 115.348 20.2042 115.89 20.2042C116.433 20.2042 120.229 19.9539 121.106 20.2042C121.982 20.4545 123.693 21.4141 123.693 22.7075C123.693 24.001 123.233 32.3455 123.693 33.8058C124.152 35.2661 125.695 36.0064 127.239 36.1006C129.337 36.2286 131.453 34.5568 131.703 32.9296C131.954 31.3025 131.245 20.4962 131.703 20.2042C132.162 19.9121 135.875 19.9539 136.96 20.2042C138.045 20.4545 139.672 21.9148 139.672 22.7075V41.3576C139.672 41.9 133.998 41.3576 133.331 41.3576C132.663 41.3576 132.663 39.9808 132.12 39.7722C131.578 39.5636 130.118 42.2755 125.111 42.2755C120.104 42.2755 115.89 38.437 115.89 35.725Z" fill="#A561C5"/>
</svg>
