<svg width="206" height="63" viewBox="0 0 206 63" fill="none" xmlns="http://www.w3.org/2000/svg">
<path d="M32.887 57.0468C32.2517 58.9542 30.2907 57.6191 28.8398 57.0468C28.8398 58.521 28.3714 61.7776 29.7577 62.4707C31.3848 63.2843 32.3908 63.0013 33.1279 62.6675C40.3042 59.5661 55.1669 52.8578 58.1709 51.6228C61.175 50.3878 61.7035 47.7704 61.5922 46.6161V9.5663C60.6242 5.66105 56.9332 5.29667 55.2086 5.60264L32.887 15.4492V57.0468Z" fill="#FAFBFD"/>
<path d="M32.8869 12.8624V15.5327C29.2486 16.5674 28.6729 17.9387 28.8398 18.495V57.0051C21.8582 54.015 7.07717 47.6509 3.80611 46.1155C0.535047 44.5801 -0.0880123 42.0823 0.00934081 41.0253V4.01721C1.31109 -0.555599 5.8088 -0.308044 7.89494 0.387335C14.8765 3.55826 29.2653 10.0336 30.9676 10.5677C32.6699 11.1017 32.9564 12.32 32.8869 12.8624Z" fill="#FAFBFD"/>
<path d="M193.037 42.1608C196.731 42.5614 202.091 41.5766 202.508 41.2429C202.925 40.9091 203.833 40.096 203.843 39.115C203.856 37.7436 202.258 36.9037 201.298 36.6951C200.338 36.4865 196.427 37.1851 193.371 36.6951C192.433 36.5449 191.847 36.6071 190.992 36.1944C189.737 35.588 188.531 33.6076 188.531 33.6076H203.05C203.05 33.6076 204.97 32.9818 205.303 31.8552C205.637 30.7287 205.653 29.2745 205.303 27.683C204.855 25.6393 204.185 24.4991 202.758 22.9683C201.028 21.1111 199.532 20.4688 197.084 19.7974C194.381 19.0561 191.618 19.5888 189.908 19.7974C188.197 20.006 186.455 20.7723 184.776 22.2173C182.873 23.8538 182.095 25.2728 181.396 27.683C180.67 30.1868 181.062 32.3142 181.396 34.3586C181.73 36.403 183.395 38.5075 185.694 40.1163C188.132 41.8233 190.077 41.8398 193.037 42.1608Z" fill="#FAFBFD"/>
<path d="M198.092 28.6372H188.413C188.413 28.6372 188.83 24.9238 193.294 24.9238C197.758 24.9238 198.092 28.6372 198.092 28.6372Z" fill="#5D8EC1"/>
<path d="M144.103 41.3625V19.8336H149.819C150.57 19.8336 150.987 21.9614 151.571 21.9614C152.155 21.9614 153.574 19.166 158.122 19.166C162.67 19.166 163.963 21.9614 164.38 21.9614C164.797 21.9614 167.76 19.166 171.64 19.166C175.52 19.166 176.146 20.0722 177.022 20.8766C178.559 22.2874 179.192 24.7151 179.192 25.7582V41.3625L171.64 41.1122V27.0516C171.64 26.3423 170.04 25.2808 168.678 25.341C167.413 25.3968 165.841 26.3423 165.841 27.0516V41.3625H158.122V27.5106C158.122 26.3006 156.745 25.341 154.826 25.341C152.906 25.341 151.571 26.9682 151.571 27.7609V41.3625H144.103Z" fill="#FAFBFD"/>
<path d="M95.1205 20.0005H88.4448C88.4448 20.0005 97.5404 38.9009 97.6656 40.1943C97.7907 41.4877 95.788 43.9076 95.3291 44.1162C94.8701 44.3249 93.2833 43.8568 92.4085 44.1162C91.3055 44.4433 90.823 45.2845 90.6561 45.9103C90.4892 46.5362 90.1555 49.1647 90.6561 49.4985C91.1568 49.8323 95.9966 50.8289 98.959 49.9759C101.921 49.123 103.799 46.9951 104.633 45.66C105.468 44.3249 115.565 20.9369 114.772 20.4779C113.979 20.019 108.806 20.019 107.804 20.4779C106.803 20.9369 102.756 33.6021 101.754 33.31C100.753 33.018 97.5821 20.0005 95.1205 20.0005Z" fill="#FAFBFD"/>
<path d="M117.241 35.7245C117.241 33.0126 116.699 20.2037 117.241 20.2037C117.783 20.2037 121.58 19.9534 122.456 20.2037C123.333 20.454 125.043 21.4136 125.043 22.7071C125.043 24.0005 124.584 32.345 125.043 33.8053C125.502 35.2656 127.046 36.0059 128.589 36.1001C130.687 36.2281 132.804 34.5563 133.054 32.9291C133.304 31.302 132.595 20.4957 133.054 20.2037C133.513 19.9116 137.226 19.9534 138.311 20.2037C139.396 20.454 141.023 21.9143 141.023 22.7071V41.3571C141.023 41.8995 135.348 41.3571 134.681 41.3571C134.014 41.3571 134.014 39.9803 133.471 39.7717C132.928 39.5631 131.468 42.275 126.462 42.275C121.455 42.275 117.241 38.4365 117.241 35.7245Z" fill="#FAFBFD"/>
</svg>
