<svg width="213" height="71" viewBox="0 0 213 71" fill="none" xmlns="http://www.w3.org/2000/svg">
<g filter="url(#filter0_d)">
<path d="M36.887 57.0468C36.2517 58.9542 34.2907 57.6191 32.8398 57.0468C32.8398 58.521 32.3714 61.7776 33.7577 62.4708C35.3848 63.2843 36.3908 63.0013 37.1279 62.6676C44.3042 59.5662 59.1669 52.8579 62.1709 51.6229C65.175 50.3879 65.7035 47.7705 65.5922 46.6161V9.56633C64.6242 5.66108 60.9332 5.2967 59.2086 5.60267L36.887 15.4492V57.0468Z" fill="#985AB5"/>
<path d="M36.8869 12.8624V15.5327C33.2486 16.5674 32.6729 17.9387 32.8398 18.495V57.0051C25.8582 54.015 11.0772 47.6509 7.80611 46.1155C4.53505 44.5801 3.91199 42.0823 4.00934 41.0253V4.01721C5.31109 -0.555599 9.8088 -0.308044 11.8949 0.387335C18.8765 3.55826 33.2653 10.0336 34.9676 10.5677C36.6699 11.1017 36.9564 12.32 36.8869 12.8624Z" fill="#985AB5"/>
<path d="M196.037 42.1608C199.731 42.5614 205.091 41.5766 205.508 41.2429C205.925 40.9091 206.833 40.096 206.843 39.115C206.856 37.7436 205.258 36.9037 204.298 36.6951C203.338 36.4865 199.427 37.1851 196.371 36.6951C195.433 36.5449 194.847 36.6071 193.992 36.1944C192.737 35.588 191.531 33.6076 191.531 33.6076H206.05C206.05 33.6076 207.97 32.9818 208.303 31.8552C208.637 30.7287 208.653 29.2745 208.303 27.683C207.855 25.6393 207.185 24.4991 205.758 22.9683C204.028 21.1111 202.532 20.4688 200.084 19.7974C197.381 19.0561 194.618 19.5888 192.908 19.7974C191.197 20.006 189.455 20.7723 187.776 22.2173C185.873 23.8538 185.095 25.2728 184.396 27.683C183.67 30.1868 184.062 32.3142 184.396 34.3586C184.73 36.403 186.395 38.5075 188.694 40.1163C191.132 41.8233 193.077 41.8398 196.037 42.1608Z" fill="#985AB5"/>
<path d="M201.092 28.6371H191.413C191.413 28.6371 191.83 24.9238 196.294 24.9238C200.758 24.9238 201.092 28.6371 201.092 28.6371Z" fill="white"/>
<path d="M147.103 41.3625V19.8336H152.819C153.57 19.8336 153.987 21.9614 154.571 21.9614C155.155 21.9614 156.574 19.166 161.122 19.166C165.67 19.166 166.963 21.9614 167.38 21.9614C167.797 21.9614 170.76 19.166 174.64 19.166C178.52 19.166 179.146 20.0722 180.022 20.8766C181.559 22.2874 182.192 24.7151 182.192 25.7582V41.3625L174.64 41.1122V27.0516C174.64 26.3423 173.04 25.2808 171.678 25.341C170.413 25.3968 168.841 26.3423 168.841 27.0516V41.3625H161.122V27.5106C161.122 26.3006 159.745 25.341 157.826 25.341C155.906 25.341 154.571 26.9682 154.571 27.7609V41.3625H147.103Z" fill="#985AB5"/>
<path d="M98.1205 20.0005H91.4448C91.4448 20.0005 100.54 38.9009 100.666 40.1943C100.791 41.4877 98.788 43.9076 98.3291 44.1162C97.8701 44.3249 96.2833 43.8568 95.4085 44.1162C94.3055 44.4433 93.823 45.2845 93.6561 45.9103C93.4892 46.5362 93.1555 49.1647 93.6561 49.4985C94.1568 49.8323 98.9966 50.8289 101.959 49.9759C104.921 49.123 106.799 46.9951 107.633 45.66C108.468 44.3249 118.565 20.9369 117.772 20.4779C116.979 20.019 111.806 20.019 110.804 20.4779C109.803 20.9369 105.756 33.6021 104.754 33.31C103.753 33.018 100.582 20.0005 98.1205 20.0005Z" fill="#985AB5"/>
<path d="M119.89 35.725C119.89 33.0131 119.348 20.2042 119.89 20.2042C120.433 20.2042 124.229 19.9539 125.106 20.2042C125.982 20.4545 127.693 21.4141 127.693 22.7075C127.693 24.001 127.233 32.3455 127.693 33.8058C128.152 35.2661 129.695 36.0064 131.239 36.1006C133.337 36.2286 135.453 34.5568 135.703 32.9296C135.954 31.3025 135.245 20.4962 135.703 20.2042C136.162 19.9121 139.875 19.9539 140.96 20.2042C142.045 20.4545 143.672 21.9148 143.672 22.7075V41.3576C143.672 41.9 137.998 41.3576 137.331 41.3576C136.663 41.3576 136.663 39.9808 136.12 39.7722C135.578 39.5636 134.118 42.2755 129.111 42.2755C124.104 42.2755 119.89 38.437 119.89 35.725Z" fill="#985AB5"/>
</g>
<defs>
<filter id="filter0_d" x="0" y="0" width="212.559" height="71" filterUnits="userSpaceOnUse" color-interpolation-filters="sRGB">
<feFlood flood-opacity="0" result="BackgroundImageFix"/>
<feColorMatrix in="SourceAlpha" type="matrix" values="0 0 0 0 0 0 0 0 0 0 0 0 0 0 0 0 0 0 127 0" result="hardAlpha"/>
<feOffset dy="4"/>
<feGaussianBlur stdDeviation="2"/>
<feComposite in2="hardAlpha" operator="out"/>
<feColorMatrix type="matrix" values="0 0 0 0 0 0 0 0 0 0 0 0 0 0 0 0 0 0 0.25 0"/>
<feBlend mode="normal" in2="BackgroundImageFix" result="effect1_dropShadow"/>
<feBlend mode="normal" in="SourceGraphic" in2="effect1_dropShadow" result="shape"/>
</filter>
</defs>
</svg>
