<svg width="41" height="41" viewBox="0 0 41 41" fill="none" xmlns="http://www.w3.org/2000/svg">
<path d="M11.955 0C5.36254 0 0 5.3675 0 11.9617V29.045C0 35.6375 5.3675 41 11.9617 41H29.045C35.6375 41 41 35.6325 41 29.0383V11.955C41 5.36254 35.6325 0 29.0383 0H11.955ZM32.4583 6.83333C33.4013 6.83333 34.1667 7.59867 34.1667 8.54167C34.1667 9.48467 33.4013 10.25 32.4583 10.25C31.5153 10.25 30.75 9.48467 30.75 8.54167C30.75 7.59867 31.5153 6.83333 32.4583 6.83333ZM20.5 10.25C26.1529 10.25 30.75 14.8471 30.75 20.5C30.75 26.1529 26.1529 30.75 20.5 30.75C14.8471 30.75 10.25 26.1529 10.25 20.5C10.25 14.8471 14.8471 10.25 20.5 10.25ZM20.5 13.6667C18.6877 13.6667 16.9496 14.3866 15.6681 15.6681C14.3866 16.9496 13.6667 18.6877 13.6667 20.5C13.6667 22.3123 14.3866 24.0504 15.6681 25.3319C16.9496 26.6134 18.6877 27.3333 20.5 27.3333C22.3123 27.3333 24.0504 26.6134 25.3319 25.3319C26.6134 24.0504 27.3333 22.3123 27.3333 20.5C27.3333 18.6877 26.6134 16.9496 25.3319 15.6681C24.0504 14.3866 22.3123 13.6667 20.5 13.6667Z" fill="white"/>
</svg>
