<svg width="57" height="41" viewBox="0 0 57 41" fill="none" xmlns="http://www.w3.org/2000/svg">
<path d="M55.4089 6.99777C54.882 4.19965 52.3714 2.16195 49.4579 1.52579C45.0979 0.63616 37.0288 0 28.2985 0C19.5734 0 11.3752 0.63616 7.01006 1.52579C4.10169 2.16195 1.58592 4.07044 1.059 6.99777C0.526918 10.1786 0 14.6317 0 20.3571C0 26.0826 0.526917 30.5357 1.18815 33.7165C1.72023 36.5146 4.23083 38.5523 7.13921 39.1885C11.7678 40.0781 19.7026 40.7143 28.4328 40.7143C37.1631 40.7143 45.0979 40.0781 49.7265 39.1885C52.6349 38.5523 55.1455 36.6439 55.6775 33.7165C56.2045 30.5357 56.8657 25.9534 57 20.3571C56.7314 14.6317 56.0701 10.1786 55.4089 6.99777ZM21.1593 29.2634V11.4509L37.2923 20.3571L21.1593 29.2634Z" fill="white"/>
</svg>
