<svg width="4684" height="958" viewBox="0 0 4684 958" fill="none" xmlns="http://www.w3.org/2000/svg">
<g clip-path="url(#clip0)">
<rect width="4684" height="957.33" fill="white"/>
<path d="M2659.29 418.391H2636.25V435.652H2663.18V443.435H2626.5V387.336H2662.91V395.196H2636.25V410.685H2659.29V418.391ZM2670.33 443.435V387.336H2686.9C2691.86 387.336 2696.25 388.441 2700.08 390.65C2703.93 392.859 2706.91 395.992 2709.02 400.051C2711.12 404.109 2712.17 408.759 2712.17 413.999V416.811C2712.17 422.128 2711.11 426.803 2708.98 430.836C2706.87 434.869 2703.85 437.977 2699.92 440.16C2696.02 442.344 2691.54 443.435 2686.48 443.435H2670.33ZM2680.08 395.196V435.652H2686.44C2691.55 435.652 2695.47 434.06 2698.19 430.875C2700.94 427.664 2702.34 423.066 2702.39 417.081V413.96C2702.39 407.872 2701.07 403.223 2698.42 400.012C2695.77 396.802 2691.93 395.196 2686.9 395.196H2680.08ZM2762.13 387.336V424.825C2762.13 430.785 2760.22 435.511 2756.39 439.004C2752.59 442.472 2747.51 444.206 2741.17 444.206C2734.75 444.206 2729.65 442.498 2725.87 439.081C2722.1 435.639 2720.21 430.875 2720.21 424.787V387.336H2729.92V424.864C2729.92 428.614 2730.87 431.478 2732.77 433.456C2734.67 435.434 2737.47 436.423 2741.17 436.423C2748.67 436.423 2752.42 432.467 2752.42 424.556V387.336H2762.13ZM2814.59 425.172C2814.02 431.157 2811.81 435.832 2807.96 439.197C2804.11 442.536 2798.98 444.206 2792.59 444.206C2788.12 444.206 2784.18 443.153 2780.76 441.046C2777.37 438.914 2774.75 435.896 2772.9 431.992C2771.05 428.088 2770.09 423.554 2770.01 418.391V413.151C2770.01 407.86 2770.95 403.198 2772.82 399.165C2774.7 395.132 2777.38 392.024 2780.87 389.841C2784.39 387.657 2788.45 386.566 2793.05 386.566C2799.24 386.566 2804.22 388.248 2808 391.613C2811.78 394.978 2813.97 399.73 2814.59 405.869H2804.88C2804.42 401.836 2803.23 398.934 2801.33 397.161C2799.46 395.363 2796.7 394.464 2793.05 394.464C2788.81 394.464 2785.55 396.018 2783.26 399.126C2781 402.209 2779.85 406.742 2779.8 412.727V417.698C2779.8 423.76 2780.87 428.383 2783.03 431.568C2785.22 434.753 2788.4 436.346 2792.59 436.346C2796.41 436.346 2799.29 435.485 2801.22 433.764C2803.14 432.043 2804.36 429.179 2804.88 425.172H2814.59ZM2853.95 430.374H2832.22L2827.67 443.435H2817.54L2838.73 387.336H2847.47L2868.7 443.435H2858.53L2853.95 430.374ZM2834.95 422.514H2851.21L2843.08 399.242L2834.95 422.514ZM2916.27 425.172C2915.7 431.157 2913.49 435.832 2909.64 439.197C2905.79 442.536 2900.66 444.206 2894.27 444.206C2889.8 444.206 2885.86 443.153 2882.44 441.046C2879.05 438.914 2876.43 435.896 2874.58 431.992C2872.73 428.088 2871.77 423.554 2871.69 418.391V413.151C2871.69 407.86 2872.63 403.198 2874.5 399.165C2876.38 395.132 2879.06 392.024 2882.56 389.841C2886.07 387.657 2890.13 386.566 2894.73 386.566C2900.92 386.566 2905.9 388.248 2909.68 391.613C2913.46 394.978 2915.65 399.73 2916.27 405.869H2906.56C2906.1 401.836 2904.92 398.934 2903.01 397.161C2901.14 395.363 2898.38 394.464 2894.73 394.464C2890.49 394.464 2887.23 396.018 2884.94 399.126C2882.68 402.209 2881.53 406.742 2881.48 412.727V417.698C2881.48 423.76 2882.56 428.383 2884.71 431.568C2886.9 434.753 2890.08 436.346 2894.27 436.346C2898.1 436.346 2900.97 435.485 2902.9 433.764C2904.83 432.043 2906.05 429.179 2906.56 425.172H2916.27ZM2897.62 443.512L2897.2 445.593C2901.05 446.286 2902.98 448.508 2902.98 452.259C2902.98 454.956 2901.87 457.062 2899.66 458.577C2897.45 460.093 2894.36 460.851 2890.38 460.851L2890.11 455.572C2891.8 455.572 2893.1 455.264 2894 454.647C2894.92 454.057 2895.39 453.222 2895.39 452.143C2895.39 450.987 2894.92 450.178 2894 449.716C2893.1 449.279 2891.62 448.996 2889.57 448.868L2890.8 443.512H2897.62ZM2955.63 430.374H2933.9L2929.35 443.435H2919.22L2940.41 387.336H2949.15L2970.38 443.435H2960.21L2955.63 430.374ZM2936.63 422.514H2952.89L2944.76 399.242L2936.63 422.514ZM2959.06 373.157C2959.06 375.983 2958.24 378.333 2956.59 380.208C2954.97 382.083 2952.93 383.021 2950.46 383.021C2949.46 383.021 2948.59 382.918 2947.84 382.713C2947.13 382.481 2946.09 381.981 2944.72 381.21C2943.39 380.439 2942.44 379.977 2941.87 379.823C2941.33 379.669 2940.73 379.592 2940.06 379.592C2939.09 379.592 2938.25 379.964 2937.56 380.709C2936.89 381.428 2936.56 382.379 2936.56 383.56L2930.81 383.252C2930.81 380.427 2931.62 378.051 2933.24 376.124C2934.89 374.198 2936.93 373.234 2939.37 373.234C2940.83 373.234 2942.59 373.812 2944.65 374.968C2946.73 376.124 2948.44 376.702 2949.77 376.702C2950.75 376.702 2951.58 376.342 2952.28 375.623C2952.97 374.878 2953.32 373.902 2953.32 372.695L2959.06 373.157ZM3019.92 416.85C3019.92 422.347 3018.96 427.176 3017.06 431.337C3015.16 435.473 3012.44 438.658 3008.9 440.892C3005.38 443.101 3001.32 444.206 2996.72 444.206C2992.17 444.206 2988.12 443.101 2984.55 440.892C2981 438.658 2978.25 435.485 2976.3 431.376C2974.37 427.266 2973.4 422.527 2973.37 417.158V413.999C2973.37 408.527 2974.33 403.698 2976.26 399.512C2978.21 395.325 2980.95 392.127 2984.47 389.918C2988.01 387.683 2992.07 386.566 2996.64 386.566C3001.22 386.566 3005.26 387.67 3008.78 389.879C3012.33 392.062 3015.06 395.222 3016.99 399.357C3018.91 403.467 3019.89 408.258 3019.92 413.729V416.85ZM3010.17 413.922C3010.17 407.705 3008.99 402.941 3006.62 399.627C3004.29 396.314 3000.96 394.657 2996.64 394.657C2992.43 394.657 2989.13 396.314 2986.74 399.627C2984.38 402.915 2983.17 407.577 2983.12 413.613V416.85C2983.12 423.015 2984.31 427.779 2986.7 431.144C2989.12 434.509 2992.46 436.192 2996.72 436.192C3001.04 436.192 3004.35 434.548 3006.66 431.26C3009 427.972 3010.17 423.169 3010.17 416.85V413.922ZM3048.49 443.435V387.336H3065.05C3070.01 387.336 3074.4 388.441 3078.23 390.65C3082.08 392.859 3085.06 395.992 3087.17 400.051C3089.28 404.109 3090.33 408.759 3090.33 413.999V416.811C3090.33 422.128 3089.26 426.803 3087.13 430.836C3085.02 434.869 3082.01 437.977 3078.08 440.16C3074.17 442.344 3069.69 443.435 3064.63 443.435H3048.49ZM3058.23 395.196V435.652H3064.59C3069.7 435.652 3073.62 434.06 3076.34 430.875C3079.09 427.664 3080.49 423.066 3080.54 417.081V413.96C3080.54 407.872 3079.22 403.223 3076.57 400.012C3073.93 396.802 3070.09 395.196 3065.05 395.196H3058.23ZM3144.02 416.85C3144.02 422.347 3143.07 427.176 3141.17 431.337C3139.27 435.473 3136.55 438.658 3133 440.892C3129.48 443.101 3125.42 444.206 3120.83 444.206C3116.28 444.206 3112.22 443.101 3108.65 440.892C3105.11 438.658 3102.36 435.485 3100.41 431.376C3098.48 427.266 3097.5 422.527 3097.48 417.158V413.999C3097.48 408.527 3098.44 403.698 3100.37 399.512C3102.32 395.325 3105.05 392.127 3108.57 389.918C3112.12 387.683 3116.18 386.566 3120.75 386.566C3125.32 386.566 3129.37 387.67 3132.89 389.879C3136.43 392.062 3139.17 395.222 3141.09 399.357C3143.02 403.467 3144 408.258 3144.02 413.729V416.85ZM3134.27 413.922C3134.27 407.705 3133.09 402.941 3130.73 399.627C3128.39 396.314 3125.06 394.657 3120.75 394.657C3116.54 394.657 3113.24 396.314 3110.85 399.627C3108.48 402.915 3107.28 407.577 3107.23 413.613V416.85C3107.23 423.015 3108.42 427.779 3110.81 431.144C3113.22 434.509 3116.56 436.192 3120.83 436.192C3125.14 436.192 3128.45 434.548 3130.77 431.26C3133.1 427.972 3134.27 423.169 3134.27 416.85V413.922ZM3204.92 419.663H3182.34V443.435H3172.59V387.336H3208.23V395.196H3182.34V411.88H3204.92V419.663ZM3256.22 387.336V424.825C3256.22 430.785 3254.31 435.511 3250.48 439.004C3246.68 442.472 3241.61 444.206 3235.26 444.206C3228.84 444.206 3223.74 442.498 3219.96 439.081C3216.19 435.639 3214.3 430.875 3214.3 424.787V387.336H3224.01V424.864C3224.01 428.614 3224.96 431.478 3226.86 433.456C3228.76 435.434 3231.56 436.423 3235.26 436.423C3242.76 436.423 3246.51 432.467 3246.51 424.556V387.336H3256.22ZM3306.41 395.196H3288.91V443.435H3279.24V395.196H3261.9V387.336H3306.41V395.196ZM3354.05 387.336V424.825C3354.05 430.785 3352.14 435.511 3348.31 439.004C3344.51 442.472 3339.43 444.206 3333.09 444.206C3326.67 444.206 3321.57 442.498 3317.79 439.081C3314.02 435.639 3312.13 430.875 3312.13 424.787V387.336H3321.84V424.864C3321.84 428.614 3322.79 431.478 3324.69 433.456C3326.59 435.434 3329.39 436.423 3333.09 436.423C3340.59 436.423 3344.34 432.467 3344.34 424.556V387.336H3354.05ZM3384.31 421.82H3373.45V443.435H3363.7V387.336H3383.43C3389.9 387.336 3394.9 388.787 3398.42 391.69C3401.94 394.593 3403.7 398.792 3403.7 404.289C3403.7 408.039 3402.78 411.186 3400.96 413.729C3399.16 416.246 3396.64 418.186 3393.41 419.547L3406.01 442.934V443.435H3395.57L3384.31 421.82ZM3373.45 413.999H3383.47C3386.75 413.999 3389.32 413.177 3391.17 411.533C3393.02 409.863 3393.95 407.59 3393.95 404.713C3393.95 401.708 3393.09 399.383 3391.37 397.739C3389.67 396.095 3387.13 395.248 3383.74 395.196H3373.45V413.999ZM3456.92 416.85C3456.92 422.347 3455.97 427.176 3454.07 431.337C3452.17 435.473 3449.45 438.658 3445.91 440.892C3442.39 443.101 3438.33 444.206 3433.73 444.206C3429.18 444.206 3425.12 443.101 3421.55 440.892C3418.01 438.658 3415.26 435.485 3413.31 431.376C3411.38 427.266 3410.41 422.527 3410.38 417.158V413.999C3410.38 408.527 3411.34 403.698 3413.27 399.512C3415.22 395.325 3417.96 392.127 3421.48 389.918C3425.02 387.683 3429.08 386.566 3433.65 386.566C3438.22 386.566 3442.27 387.67 3445.79 389.879C3449.33 392.062 3452.07 395.222 3454 399.357C3455.92 403.467 3456.9 408.258 3456.92 413.729V416.85ZM3447.18 413.922C3447.18 407.705 3446 402.941 3443.63 399.627C3441.29 396.314 3437.97 394.657 3433.65 394.657C3429.44 394.657 3426.14 396.314 3423.75 399.627C3421.39 402.915 3420.18 407.577 3420.13 413.613V416.85C3420.13 423.015 3421.32 427.779 3423.71 431.144C3426.13 434.509 3429.47 436.192 3433.73 436.192C3438.05 436.192 3441.36 434.548 3443.67 431.26C3446.01 427.972 3447.18 423.169 3447.18 416.85V413.922Z" fill="white"/>
<rect width="4684" height="957.33" fill="url(#paint0_linear)"/>
<path d="M2973.34 567.701C3003.44 570.897 3047.09 563.041 3050.49 560.378C3053.89 557.715 3061.29 551.228 3061.37 543.402C3061.48 532.46 3048.45 525.76 3040.64 524.095C3032.82 522.431 3000.96 528.005 2976.06 524.095C2968.43 522.897 2963.65 523.393 2956.69 520.101C2946.46 515.263 2936.64 499.463 2936.64 499.463H3054.91C3054.91 499.463 3070.55 494.47 3073.26 485.482C3075.98 476.495 3076.11 464.893 3073.26 452.196C3069.61 435.891 3064.15 426.794 3052.53 414.581C3038.44 399.764 3026.25 394.64 3006.31 389.283C2984.29 383.37 2961.79 387.619 2947.85 389.283C2933.92 390.948 2919.73 397.062 2906.05 408.59C2890.55 421.646 2884.21 432.967 2878.52 452.196C2872.6 472.171 2875.8 489.144 2878.52 505.455C2881.24 521.765 2894.8 538.555 2913.53 551.391C2933.39 565.009 2949.24 565.141 2973.34 567.701Z" fill="white"/>
<path d="M3014.53 459.809H2935.68C2935.68 459.809 2939.08 430.184 2975.44 430.184C3011.81 430.184 3014.53 459.809 3014.53 459.809Z" fill="#A561C5"/>
<path d="M2574.74 561.334V389.574H2621.3C2627.41 389.574 2632.72 406.55 2635.57 406.55C2638.42 406.55 2651.88 384.248 2688.93 384.248C2725.98 384.248 2736.51 406.55 2739.91 406.55C2743.31 406.55 2767.44 384.248 2799.05 384.248C2830.66 384.248 2835.75 391.478 2842.89 397.896C2855.41 409.151 2860.56 428.519 2860.56 436.841V561.334L2799.05 559.337V447.16C2799.05 441.502 2786.02 433.032 2774.92 433.513C2764.61 433.958 2751.81 441.502 2751.81 447.16V561.334H2688.93V450.822C2688.93 441.168 2677.71 433.513 2662.08 433.513C2646.45 433.513 2635.57 446.495 2635.57 452.819V561.334H2574.74Z" fill="white"/>
<path d="M2175.73 390.905H2121.35C2121.35 390.905 2195.45 541.695 2196.47 552.014C2197.49 562.332 2181.17 581.639 2177.43 583.303C2173.69 584.968 2160.77 581.234 2153.64 583.303C2144.66 585.913 2140.73 592.624 2139.37 597.617C2138.01 602.61 2135.29 623.581 2139.37 626.244C2143.45 628.907 2182.87 636.858 2207 630.053C2231.13 623.248 2246.43 606.271 2253.22 595.62C2260.02 584.968 2342.27 398.376 2335.81 394.714C2329.35 391.053 2287.21 391.053 2279.05 394.714C2270.9 398.376 2237.93 499.42 2229.77 497.09C2221.62 494.76 2195.79 390.905 2175.73 390.905Z" fill="white"/>
<path d="M2353.07 516.357C2353.07 494.721 2348.65 392.53 2353.07 392.53C2357.48 392.53 2388.41 390.533 2395.55 392.53C2402.69 394.527 2416.62 402.183 2416.62 412.502C2416.62 422.821 2412.88 489.395 2416.62 501.046C2420.36 512.696 2432.94 518.602 2445.51 519.353C2462.6 520.375 2479.84 507.037 2481.88 494.055C2483.91 481.074 2478.14 394.86 2481.88 392.53C2485.61 390.2 2515.86 390.533 2524.7 392.53C2533.54 394.527 2546.79 406.178 2546.79 412.502V561.295C2546.79 565.622 2500.57 561.295 2495.13 561.295C2489.69 561.295 2489.69 550.31 2485.27 548.646C2480.85 546.982 2468.96 568.618 2428.18 568.618C2387.39 568.618 2353.07 537.994 2353.07 516.357Z" fill="white"/>
<path d="M1797.48 702.421C1792.02 718.632 1775.17 707.285 1762.71 702.421C1762.71 714.95 1758.69 742.626 1770.6 748.517C1784.57 755.431 1793.21 753.026 1799.55 750.189C1861.2 723.832 1988.87 666.821 2014.68 656.326C2040.49 645.83 2045.03 623.586 2044.07 613.776V298.909C2035.75 265.72 2004.05 262.623 1989.23 265.223L1797.48 348.904V702.421Z" fill="white"/>
<path d="M1797.48 326.921V349.614C1766.22 358.408 1761.28 370.062 1762.71 374.79V702.068C1702.73 676.656 1575.76 622.571 1547.66 609.522C1519.56 596.473 1514.21 575.246 1515.04 566.263V251.75C1526.22 212.888 1564.86 214.992 1582.78 220.902C1642.76 247.85 1766.37 302.881 1780.99 307.419C1795.61 311.958 1798.07 322.312 1797.48 326.921Z" fill="white"/>
</g>
<defs>
<linearGradient id="paint0_linear" x1="4841.32" y1="957.33" x2="6.9e-06" y2="-3.48941e-05" gradientUnits="userSpaceOnUse">
<stop stop-color="#A561C5"/>
<stop offset="1" stop-color="#A561C5" stop-opacity="0.9"/>
</linearGradient>
<clipPath id="clip0">
<rect width="4684" height="957.33" fill="white"/>
</clipPath>
</defs>
</svg>
