<svg width="1152" height="648" viewBox="0 0 1152 648" fill="none" xmlns="http://www.w3.org/2000/svg">
<path d="M1171.05 108.834C1194.91 105.122 1213.83 128.626 1205.12 151.14L1142.39 313.241C1133.67 335.755 1103.86 340.394 1088.71 321.592L979.698 186.211C964.557 167.408 975.449 139.266 999.303 135.554L1171.05 108.834Z" stroke="#6F15EA" stroke-opacity="0.1" stroke-width="39.1112"/>
<path d="M1161.87 558.592C1175.9 560.978 1182.08 577.655 1173 588.611L1107.62 667.489C1098.54 678.444 1081 675.461 1076.06 662.119L1040.44 566.058C1035.49 552.717 1046.84 539.023 1060.87 541.409L1161.87 558.592Z" stroke="#6F15EA" stroke-opacity="0.1" stroke-width="23.0531"/>
<path d="M210.598 434.874C246.268 429.324 274.569 464.47 261.54 498.136L167.731 740.533C154.702 774.199 110.114 781.136 87.4724 753.019L-75.5443 550.579C-98.1855 522.463 -81.8991 480.38 -46.2288 474.83L210.598 434.874Z" stroke="#6F15EA" stroke-opacity="0.1" stroke-width="58.4846"/>
</svg>
