<svg width="28" height="32" viewBox="0 0 28 32" fill="none" xmlns="http://www.w3.org/2000/svg">
<path d="M14.0001 16C17.9121 16 21.0834 12.8287 21.0834 8.91665C21.0834 5.00463 17.9121 1.83331 14.0001 1.83331C10.0881 1.83331 6.91675 5.00463 6.91675 8.91665C6.91675 12.8287 10.0881 16 14.0001 16Z" stroke="#333333" stroke-width="2"/>
<path d="M21.0833 18.8333H21.582C22.6177 18.8336 23.6176 19.2121 24.394 19.8976C25.1703 20.5832 25.6696 21.5286 25.798 22.5563L26.3519 26.982C26.4017 27.3807 26.3662 27.7854 26.2476 28.1693C26.1291 28.5532 25.9303 28.9075 25.6643 29.2087C25.3984 29.5099 25.0714 29.751 24.7051 29.9162C24.3388 30.0814 23.9416 30.1667 23.5398 30.1666H4.46017C4.05838 30.1667 3.66116 30.0814 3.29489 29.9162C2.92861 29.751 2.60165 29.5099 2.3357 29.2087C2.06976 28.9075 1.87091 28.5532 1.75236 28.1693C1.63381 27.7854 1.59827 27.3807 1.64809 26.982L2.20059 22.5563C2.32907 21.5281 2.82876 20.5823 3.60568 19.8967C4.38261 19.2111 5.38324 18.8329 6.41942 18.8333H6.91667" stroke="#333333" stroke-width="2" stroke-linecap="round" stroke-linejoin="round"/>
</svg>
